HIERARCHY
ROOT Hips
{
	OFFSET -0.001795 -0.223333 0.028219
	CHANNELS 6 Xposition Yposition Zposition Zrotation Yrotation Xrotation 
	JOINT LeftUpLeg
	{
		OFFSET 0.069520 -0.091406 -0.006815
		CHANNELS 3 Zrotation Yrotation Xrotation
		JOINT LeftLeg
		{
			OFFSET 0.034277 -0.375199 -0.004496
			CHANNELS 3 Zrotation Yrotation Xrotation
			JOINT LeftFoot
			{
				OFFSET -0.013596 -0.397961 -0.043693
				CHANNELS 3 Zrotation Yrotation Xrotation
				JOINT LeftToe
				{
					OFFSET 0.026358 -0.055791 0.119288
					CHANNELS 3 Zrotation Yrotation Xrotation
					End Site
					{
						OFFSET 0.000000 0.000000 0.000000
					}
				}
			}
		}
	}
	JOINT RightUpLeg
	{
		OFFSET -0.067670 -0.090522 -0.004320
		CHANNELS 3 Zrotation Yrotation Xrotation
		JOINT RightLeg
		{
			OFFSET -0.038290 -0.382569 -0.008850
			CHANNELS 3 Zrotation Yrotation Xrotation
			JOINT RightFoot
			{
				OFFSET 0.015774 -0.398415 -0.042312
				CHANNELS 3 Zrotation Yrotation Xrotation
				JOINT RightToe
				{
					OFFSET -0.025372 -0.048144 0.123348
					CHANNELS 3 Zrotation Yrotation Xrotation
					End Site
					{
						OFFSET 0.000000 0.000000 0.000000
					}
				}
			}
		}
	}
	JOINT Spine
	{
		OFFSET -0.002533 0.108963 -0.026696
		CHANNELS 3 Zrotation Yrotation Xrotation
		JOINT Spine1
		{
			OFFSET 0.005487 0.135180 0.001092
			CHANNELS 3 Zrotation Yrotation Xrotation
			JOINT Spine2
			{
				OFFSET 0.001457 0.052922 0.025425
				CHANNELS 3 Zrotation Yrotation Xrotation
				JOINT Neck
				{
					OFFSET -0.002778 0.213870 -0.042857
					CHANNELS 3 Zrotation Yrotation Xrotation
					JOINT Head
					{
						OFFSET 0.005152 0.064970 0.051349
						CHANNELS 3 Zrotation Yrotation Xrotation
						End Site
						{
							OFFSET 0.000000 0.000000 0.000000
						}
					}
				}
				JOINT LeftShoulder
				{
					OFFSET 0.078845 0.121749 -0.034090
					CHANNELS 3 Zrotation Yrotation Xrotation
					JOINT LeftArm
					{
						OFFSET 0.090977 0.030469 -0.008868
						CHANNELS 3 Zrotation Yrotation Xrotation
						JOINT LeftForeArm
						{
							OFFSET 0.259612 -0.012772 -0.027456
							CHANNELS 3 Zrotation Yrotation Xrotation
							JOINT LeftHand
							{
								OFFSET 0.249234 0.008986 -0.001171
								CHANNELS 3 Zrotation Yrotation Xrotation
								End Site
								{
									OFFSET 0.000000 0.000000 0.000000
								}
							}
						}
					}
				}
				JOINT RightShoulder
				{
					OFFSET -0.081759 0.118833 -0.038615
					CHANNELS 3 Zrotation Yrotation Xrotation
					JOINT RightArm
					{
						OFFSET -0.096012 0.032551 -0.009143
						CHANNELS 3 Zrotation Yrotation Xrotation
						JOINT RightForeArm
						{
							OFFSET -0.253742 -0.013329 -0.021401
							CHANNELS 3 Zrotation Yrotation Xrotation
							JOINT RightHand
							{
								OFFSET -0.255298 0.007772 -0.005559
								CHANNELS 3 Zrotation Yrotation Xrotation
								End Site
								{
									OFFSET 0.000000 0.000000 0.000000
								}
							}
						}
					}
				}
			}
		}
	}
}
MOTION
Frames: 14
Frame Time: 0.050000
0.053063 0.892562 -2.747162 -0.998890 2.810746 12.880884 13.811850 0.791137 -64.833906 -13.698152 6.177352 50.213300 6.806386 16.653214 18.916499 0.000000 0.000000 0.000000 8.630969 5.967994 -37.403988 6.269585 -1.857664 42.972495 -10.241457 -24.914667 2.506478 0.000000 0.000000 0.000000 -14.304118 4.814481 55.452610 10.135717 -1.398872 -24.981114 3.500876 9.767792 27.641660 -10.654636 8.162908 -35.707142 0.000000 0.000000 0.000000 -31.799044 -16.912678 4.895102 -32.696273 -29.923914 2.542383 29.507493 -35.633899 -8.187656 0.000000 0.000000 0.000000 24.886830 19.918402 14.929373 37.865230 24.262602 0.581897 -27.967963 32.925102 -5.488082 0.000000 0.000000 0.000000 
0.044503 0.900106 -2.775722 -0.695990 2.978882 13.289373 14.749433 1.255063 -64.607908 -15.977406 9.214793 61.283785 8.681996 19.015301 15.613837 0.000000 0.000000 0.000000 8.364177 6.004623 -38.278885 6.899749 -2.077999 39.947032 -10.786124 -25.656918 5.469967 0.000000 0.000000 0.000000 -14.688946 4.940012 54.820348 9.365981 -1.152243 -25.673348 3.682111 9.564506 27.838852 -10.936745 8.258867 -35.491229 0.000000 0.000000 0.000000 -31.415766 -16.556179 4.644829 -32.037748 -30.003186 2.446481 27.712587 -33.089826 -7.016323 0.000000 0.000000 0.000000 23.248455 20.225240 14.665490 37.748022 26.014198 1.176725 -29.463887 32.760900 -5.776816 0.000000 0.000000 0.000000 
0.036819 0.907234 -2.801839 -1.038208 4.305518 14.172425 14.879490 0.749126 -61.743751 -16.257701 9.995701 66.906854 9.096198 19.620924 15.887384 0.000000 0.000000 0.000000 8.365821 6.104365 -40.068370 7.386992 -2.365076 37.203799 -11.394068 -26.261620 8.863201 0.000000 0.000000 0.000000 -14.113377 4.163376 53.673336 9.275853 -1.093373 -25.808864 3.145270 9.859338 27.671505 -9.743152 7.716145 -36.569901 0.000000 0.000000 0.000000 -29.906800 -16.407031 4.221891 -33.129109 -29.511203 2.522763 26.660519 -32.586389 -6.680247 0.000000 0.000000 0.000000 24.154615 20.432007 15.392881 36.240636 27.536808 1.347544 -30.878853 33.690313 -6.330815 0.000000 0.000000 0.000000 
0.029915 0.912820 -2.826051 -1.120054 5.968841 14.917512 13.860684 -0.369980 -57.525268 -16.792483 10.037246 68.421596 10.294199 21.391661 15.115476 0.000000 0.000000 0.000000 8.287031 6.051296 -41.605930 7.723997 -2.558453 34.401623 -11.564835 -26.008710 11.594855 0.000000 0.000000 0.000000 -13.636174 3.417557 53.107940 9.284998 -1.005118 -26.379796 2.863825 9.477667 27.904917 -10.245932 7.859758 -37.099177 0.000000 0.000000 0.000000 -28.954190 -16.915057 4.519897 -31.754413 -29.351688 2.250821 26.055086 -31.455354 -6.302844 0.000000 0.000000 0.000000 23.470646 21.478553 15.979819 36.475492 28.882990 1.799136 -33.612523 34.325414 -7.139092 0.000000 0.000000 0.000000 
0.023830 0.915514 -2.849704 -1.577597 7.951497 15.073615 13.680405 -0.950864 -53.160001 -18.623688 10.294592 65.930766 11.367052 23.113053 14.107695 0.000000 0.000000 0.000000 8.234301 5.941872 -43.251603 8.347899 -2.901883 32.308794 -12.211765 -26.394542 14.630764 0.000000 0.000000 0.000000 -13.907000 3.003561 53.441273 9.338435 -0.922762 -27.083554 4.056941 9.466696 27.820432 -10.174308 7.690507 -38.972268 0.000000 0.000000 0.000000 -27.739147 -17.408077 4.617123 -32.589130 -29.005041 2.324956 27.299884 -30.994276 -6.656206 0.000000 0.000000 0.000000 23.815682 20.867806 15.957968 36.469623 29.977641 2.061620 -36.331976 35.562737 -8.066797 0.000000 0.000000 0.000000 
0.017944 0.914860 -2.874060 -1.406340 9.857701 15.273892 11.926754 -1.871580 -47.551169 -19.800234 9.082962 58.751978 12.608234 25.474141 10.689240 0.000000 0.000000 0.000000 7.892738 5.679635 -44.912271 8.867270 -3.175484 30.674881 -13.693199 -28.272748 16.189211 0.000000 0.000000 0.000000 -14.071352 2.549060 53.371282 10.477792 -1.241601 -25.983405 2.748569 8.976446 26.615405 -11.452869 7.975154 -40.024970 0.000000 0.000000 0.000000 -26.595228 -16.684826 4.134900 -30.928697 -28.964583 2.125490 28.883173 -29.990947 -6.946190 0.000000 0.000000 0.000000 25.283168 21.655980 17.003036 36.330460 30.651072 2.239069 -39.403224 36.926829 -9.364045 0.000000 0.000000 0.000000 
0.011317 0.911506 -2.900442 -1.824753 12.711106 14.968295 9.309002 -2.842791 -42.004689 -17.465430 5.470950 49.524177 12.200487 25.676504 2.179357 0.000000 0.000000 0.000000 8.150141 5.369101 -46.301069 8.815860 -3.323903 29.558721 -14.879472 -29.308944 18.004987 0.000000 0.000000 0.000000 -14.104964 1.737556 53.331476 10.474518 -1.127108 -26.779768 2.933543 7.500100 27.665663 -11.261975 7.982622 -39.821232 0.000000 0.000000 0.000000 -25.232886 -16.326627 4.250228 -29.690994 -30.185775 1.973314 30.088630 -28.446729 -6.889885 0.000000 0.000000 0.000000 24.402605 22.541027 17.108115 39.377241 32.068566 3.232631 -42.694522 35.950891 -9.768188 0.000000 0.000000 0.000000 
0.003303 0.905527 -2.929390 -3.114210 16.077008 14.110782 8.008053 -3.356691 -38.937302 -13.107482 2.113334 42.756436 11.414247 24.208769 -2.842121 0.000000 0.000000 0.000000 7.810723 4.746888 -49.165008 9.511082 -4.092460 30.974640 -16.173836 -29.787714 21.799839 0.000000 0.000000 0.000000 -14.172236 0.674022 55.002702 12.203995 -1.346377 -28.031285 2.186449 8.069109 28.222091 -10.256463 7.441943 -43.470291 0.000000 0.000000 0.000000 -23.852663 -17.518320 4.521170 -27.407147 -31.128810 1.832222 31.093872 -25.229206 -6.492749 0.000000 0.000000 0.000000 25.907367 21.941447 17.744791 39.507479 34.021716 3.685923 -45.511809 36.177893 -10.447316 0.000000 0.000000 0.000000 
-0.006054 0.899809 -2.959664 -3.508599 19.092602 12.677270 8.104679 -3.942815 -40.344988 -11.633719 0.882072 42.895585 11.186300 23.818420 -3.283638 0.000000 0.000000 0.000000 7.165293 3.877913 -52.182842 10.449903 -5.230729 33.984138 -17.054275 -29.690601 25.560546 0.000000 0.000000 0.000000 -15.356358 0.234604 57.127405 12.670679 -1.445803 -27.825103 2.945813 8.242063 27.895092 -9.543590 7.272576 -43.560191 0.000000 0.000000 0.000000 -22.831253 -18.319415 4.759377 -25.730291 -32.079188 1.800875 33.639688 -23.094513 -6.642754 0.000000 0.000000 0.000000 24.565718 21.724248 17.294515 41.740515 34.983294 4.662181 -47.048221 35.654697 -10.428361 0.000000 0.000000 0.000000 
-0.015662 0.894859 -2.987017 -4.004275 20.082701 11.370506 9.429655 -4.041091 -42.433522 -12.566131 1.168920 43.961642 10.746762 23.157737 -1.867357 0.000000 0.000000 0.000000 5.725522 2.945117 -55.411880 11.703094 -6.738907 38.847023 -13.990539 -25.376012 27.184663 0.000000 0.000000 0.000000 -17.058645 0.659074 58.617064 12.775674 -1.470221 -28.171095 3.298428 9.642832 28.950186 -10.141926 7.669775 -43.462846 0.000000 0.000000 0.000000 -22.922262 -20.368780 5.390306 -23.317943 -31.186282 1.387557 37.244007 -21.625511 -7.208158 0.000000 0.000000 0.000000 23.124751 22.677173 17.792098 42.653534 35.052204 4.957386 -49.675636 35.424942 -10.850226 0.000000 0.000000 0.000000 
-0.025087 0.891563 -3.007839 -4.552676 21.540261 9.747876 9.592404 -4.517138 -44.282192 -11.932935 0.580791 45.725442 10.690605 23.276413 0.160319 0.000000 0.000000 0.000000 4.094256 1.622088 -57.992197 10.710808 -8.010840 47.737414 -11.498461 -22.288464 26.655175 0.000000 0.000000 0.000000 -17.192443 0.170143 59.910537 12.111482 -1.390761 -27.388719 3.865896 10.727023 28.955007 -12.886974 9.019236 -41.459350 0.000000 0.000000 0.000000 -24.790251 -20.203097 4.694290 -26.424066 -31.246861 2.134989 41.413473 -23.943550 -9.119828 0.000000 0.000000 0.000000 22.942620 22.476690 17.835846 41.087579 34.773600 4.433727 -51.226134 37.490781 -12.183892 0.000000 0.000000 0.000000 
-0.035759 0.891489 -3.022122 -5.107476 23.840189 8.282896 9.607223 -5.088456 -45.164450 -11.306393 -0.223126 46.484605 8.712260 19.265036 -0.253111 0.000000 0.000000 0.000000 2.687051 0.127987 -57.826606 8.271120 -8.691497 56.109862 -8.485880 -18.528423 21.002138 0.000000 0.000000 0.000000 -17.295459 -0.689328 60.735416 10.708212 -1.175655 -26.588412 4.892501 12.078165 29.065703 -13.504588 9.555085 -40.791709 0.000000 0.000000 0.000000 -26.279062 -20.767370 4.104500 -29.384124 -30.599976 2.836435 44.993782 -27.605586 -11.800268 0.000000 0.000000 0.000000 22.772681 22.332711 18.128866 40.498932 33.798267 3.932525 -53.947742 37.897568 -13.093357 0.000000 0.000000 0.000000 
-0.049070 0.891854 -3.032013 -4.832770 26.594234 7.347609 9.457557 -5.673312 -45.377579 -10.469761 -1.099870 45.679968 8.116131 18.300258 0.592793 0.000000 0.000000 0.000000 0.650011 -1.439992 -54.603433 4.135879 -8.309049 63.464839 -6.328104 -15.257699 16.084026 0.000000 0.000000 0.000000 -17.399926 -1.694254 61.791288 10.459152 -1.112742 -26.338312 4.159628 12.687636 29.433984 -13.123851 9.773104 -39.675137 0.000000 0.000000 0.000000 -27.600700 -19.909881 2.906824 -32.629662 -29.357089 3.307789 46.736593 -31.896330 -14.397354 0.000000 0.000000 0.000000 23.416750 22.190202 18.552183 39.346369 33.023074 3.293652 -54.261448 39.365277 -13.985464 0.000000 0.000000 0.000000 
-0.067082 0.893025 -3.040323 -4.748251 29.416694 6.813850 9.135562 -6.321842 -45.530358 -8.768003 -2.376840 45.105363 6.440768 15.079871 0.982253 0.000000 0.000000 0.000000 -0.535920 -2.280729 -50.780226 -0.999244 -6.571952 68.397060 -3.980396 -11.045022 12.471805 0.000000 0.000000 0.000000 -17.372314 -2.741153 61.871385 8.520222 -0.720949 -25.760637 5.615313 13.191215 30.160087 -12.710072 10.029929 -38.262682 0.000000 0.000000 0.000000 -29.094875 -19.582032 1.736108 -36.412299 -28.270742 3.913204 49.252075 -36.769418 -17.900632 0.000000 0.000000 0.000000 23.433319 20.517214 17.981190 39.067264 32.325613 2.816552 -54.461864 41.401849 -14.732652 0.000000 0.000000 0.000000 
